# xmcd
#
# Track frame offsets:
#	150
#	14231
#	31084
#	48932
#	61226
#	78629
#	96660
#	108191
#	131009
#	156865
#	171651
#
# Disc length: 2554 seconds
#
# Revision: 1
# Processed by: cddbd v1.5PL3 Copyright (c) Steve Scherf et al.
# Submitted via: EasyCDDAExtractor 6.0.0.1
#
DISCID=9609f80b
DTITLE=Legacy of Faith - All That I Am
DYEAR=1900
DGENRE=
TTITLE0=He'd Still Been God
TTITLE1=I Stand Redeemed
TTITLE2=All That I Am
TTITLE3=Jesus Put A Song In My Heart
TTITLE4=Mary Did You Know
TTITLE5=Champion of Love
TTITLE6=In That Great Gett' Up Mornin'
TTITLE7=Your Grace Still Amazes
TTITLE8=I Bowed On My Knees And Cried Holy
TTITLE9=My Name Is Lazarus
TTITLE10=Turn Your Eyes Upon Jesus
EXTD=
EXTT0=
EXTT1=
EXTT2=
EXTT3=
EXTT4=
EXTT5=
EXTT6=
EXTT7=
EXTT8=
EXTT9=
EXTT10=
PLAYORDER=
